<svg xmlns="http://www.w3.org/2000/svg" viewBox="0 0 411.93 579.59"  width="35.93" height="32" role="img" preserveAspectRatio="xMidYMid meet"><defs><style>.cls-1{fill:#d40047;stroke:#000;}</style></defs><title>Icon</title><g id="Capa_2" data-name="Capa 2"><g id="Capa_1-2" data-name="Capa 1"><path class="cls-1" d="M205.93,579.09c-18,0-36.06,0-54.09-.07a9.93,9.93,0,0,1-4.92-1.49c-5.33-3.26-10.41-6.92-15.78-10.1a44.37,44.37,0,0,1-12.19-11c-11.48-14.47-23.19-28.77-34.73-43.2-.87-1.09-1.1-2.68-1.69-4A15.4,15.4,0,0,0,80.89,506Q57,474.54,33,443.13a10.6,10.6,0,0,1-2-5c-3-27.78-5.8-55.57-8.71-83.35a10.86,10.86,0,0,0-1.12-3.53c-4.74-9.79-9.66-19.51-14.26-29.37a28.41,28.41,0,0,1-2.63-9.12A757.85,757.85,0,0,1,1.53,198.79c1.58-29.2,5.05-58.14,13.25-86.34,7-24.23,17.93-46.2,37-63.42A160,160,0,0,1,97.7,20.41C119.93,11.09,143.16,5.68,167,2.87,205.77-1.7,244.18.21,282.1,9.74a204.6,204.6,0,0,1,54.7,22c29.61,17.48,48.9,42.87,58.86,75.68a345.39,345.39,0,0,1,12.81,66.39c4.21,42.15,3.55,84.33.41,126.5-.39,5.25-.93,10.5-1.51,15.73a11.09,11.09,0,0,1-1.1,3.52c-4.67,9.64-9.3,19.3-14.15,28.84a29.57,29.57,0,0,0-3,10.71q-4,39.82-8.23,79.63a9.17,9.17,0,0,1-1.86,4.28q-24,31.54-48,63.05c-.85,1.11-1.08,2.69-1.64,4a10.2,10.2,0,0,1-1.19,2.59q-19.71,24.52-39.5,49a11.53,11.53,0,0,1-2.59,2.28c-7.09,4.64-14.18,9.29-21.36,13.8A9,9,0,0,1,260.3,579C242.18,579.12,224.06,579.09,205.93,579.09Zm-73.75-70.52c4.64-4.53,9.19-8.9,13.65-13.37a5.73,5.73,0,0,1,4.44-1.88q55.29.07,110.59,0a7.35,7.35,0,0,1,5.83,2.44c4.19,4.35,8.59,8.49,13,12.83.46-.57.76-.88,1-1.24q11.37-16.87,22.73-33.76a5.29,5.29,0,0,0,.85-1.65c2.43-9.81,6.94-18.77,11.92-27.42q16.69-29,34-57.65c12-19.89,23.53-40,33-61.24a7.75,7.75,0,0,0,.43-4.56c-4.08-17.47-8.35-34.89-12.42-52.35-1.23-5.27-2.8-10.64-2.87-16q-1.2-83.8-1.8-167.63c0-4.73-1.52-7.25-5.54-9.56C335.67,61,308.31,52.81,279.7,48.27c-2.95-.47-5.93-.76-8.93-1.14-.19.91-.33,1.43-.39,1.95q-1.92,15.41-3.81,30.82Q259,141.28,251.49,202.66c-.22,1.78-1,2.34-2.65,2.58-10.42,1.49-20.82,3.11-31.24,4.63-4.23.62-8.58,1.94-12.7,1.45-14.08-1.69-28.08-4.06-42.11-6.12-1.46-.21-2.16-.68-2.35-2.26q-3.42-28.44-7-56.86Q148,101.83,142.56,57.6c-.42-3.42-.88-6.84-1.34-10.41-1.18.1-2.06.12-2.92.26-6.17,1-12.37,1.81-18.48,3-25.19,5.08-49.27,13.17-71.38,26.6a5.44,5.44,0,0,0-3,5.3q-.8,85.56-1.77,171.12a24.63,24.63,0,0,1-.6,5.28c-4.88,20.67-9.85,41.32-14.67,62a8.14,8.14,0,0,0,.47,5c7.15,14.18,14,28.55,21.85,42.32C62.65,389,75.48,409.3,87.61,430c7.89,13.45,15.94,26.89,20.13,42.14a6.11,6.11,0,0,0,.91,1.63q11.19,16.68,22.4,33.34C131.33,507.56,131.68,507.94,132.18,508.57ZM279.3,519.83c-5-5.31-9.65-10.21-14.17-15.25a6.08,6.08,0,0,0-5.07-2.19c-35.35.06-70.69.11-106-.05-3.85,0-6.46,1-8.91,3.94-3.88,4.62-8.18,8.89-12.52,13.55L107.78,485c-1.07,8.32-2.12,15.72-2.89,23.15a8.75,8.75,0,0,0,1.09,5c7,12,14.23,23.93,21.14,36,2.11,3.68,3.47,4,7.59,2.31,6-2.49,11.92-5.26,17.93-7.75a14.8,14.8,0,0,1,5.39-1.15q15.66-.16,31.33,0c2.24,0,4-.44,5.39-2.21a6.3,6.3,0,0,1,5.84-2.42,100.36,100.36,0,0,0,11,0,5.85,5.85,0,0,1,5.38,2.22c1.49,1.92,3.41,2.45,5.85,2.42,10.44-.13,20.88-.1,31.33,0a13.06,13.06,0,0,1,4.88,1c6.17,2.58,12.22,5.45,18.41,8,3.93,1.61,5.32,1.2,7.22-2.16,5.59-9.85,11.13-19.77,17.36-29.22,4.1-6.24,6-12.32,4.23-19.73-1.16-4.78-1.35-9.78-2.07-15.45Z"/><path class="cls-1" d="M248.72,325.12l96.79-45.32c.37,3,.68,5.64,1,8.25.65,5.31,1.4,10.61,1.9,15.94a5.27,5.27,0,0,1-1.08,3.55Q337,319.48,326.38,331.18a6,6,0,0,1-3.13,1.7q-29.53,5.81-59.12,11.39a3.69,3.69,0,0,1-3.07-1C256.93,337.41,253,331.45,248.72,325.12Z"/><path class="cls-1" d="M163.18,325.11c-4.31,6.39-8.3,12.41-12.46,18.31a3.47,3.47,0,0,1-2.91.87c-14.12-2.64-28.22-5.39-42.32-8.11-5.6-1.08-11.22-2.09-16.8-3.29A6.47,6.47,0,0,1,85.37,331q-10.5-11.61-20.79-23.43a4.54,4.54,0,0,1-1.15-3c.86-8.07,1.89-16.12,2.95-24.77Z"/></g></g></svg>